<?xml version="1.0" encoding="utf-8"?>
<!-- Generator: Adobe Illustrator 25.4.1, SVG Export Plug-In . SVG Version: 6.00 Build 0)  -->
<svg version="1.1" id="Layer_1" xmlns="http://www.w3.org/2000/svg" xmlns:xlink="http://www.w3.org/1999/xlink" x="0px" y="0px"
	 viewBox="0 0 1000 1000" style="enable-background:new 0 0 1000 1000;" xml:space="preserve">
<style type="text/css">
	.st0{fill:#FFFFFF;}
</style>
<g>
	<g transform="translate(0.000000,512.000000) scale(0.100000,-0.100000)">
		<path class="st0" d="M3220.7,5007.5c-111.1-23-162.8-46-252.8-113c-99.6-72.8-193.4-229.8-208.8-350.5
			c-11.5-86.2-15.3-91.9-82.4-101.5c-239.4-36.4-419.4-113-557.4-235.6c-82.4-70.9-170.5-206.9-201.1-304.5l-11.5-44.1H4389h2482.2
			l46-47.9c82.4-80.4,53.6-197.3-55.5-239.4c-34.5-13.4-898.3-19.2-2646.9-19.2H1621.4V3322v-229.8h160.9h162.8l11.5-80.4
			c5.7-46,182-1810,392.6-3920.6c210.7-2110.7,388.8-3844,394.6-3853.6c11.5-19.2,2784.8-24.9,2784.8-5.8
			c0,5.8-42.1,59.4-95.8,116.8c-107.3,116.8-214.5,323.7-258.6,494.1c-36.4,145.5-36.4,425.2,0,582.3
			c72.8,306.5,321.8,630.2,593.8,770c235.6,122.6,316,141.7,599.5,141.7c189.6,0,252.8,5.7,252.8,24.9
			c0,101.5,499.9,4974,511.4,4983.6c9.6,7.7,270,216.4,580.3,465.4c417.5,333.3,576.5,471.2,609.1,528.6
			c63.2,109.2,74.7,258.6,32.6,386.9c-28.7,90-67,137.9-314.1,383.1c-252.8,252.8-291.1,283.5-383,312.2
			c-91.9,26.8-281.5,30.6-1605,30.6H4551.8v65.1c0,36.4-26.8,118.8-63.2,185.8c-67,130.2-189.6,241.3-316,285.4
			C4088.3,5017.1,3337.5,5032.4,3220.7,5007.5z M4063.4,4616.8c65.1-26.8,105.3-78.5,105.3-134.1c0-26.8-61.3-30.6-517.1-30.6
			c-480.7,0-517.1,1.9-517.1,34.5c1.9,46,57.5,113,114.9,136C3327.9,4653.2,3984.9,4649.3,4063.4,4616.8z M8018.5,3714.7
			c174.3-90,95.8-354.3-103.4-354.3c-26.8,0-76.6,24.9-111.1,55.5c-51.7,46-63.2,69-63.2,136s11.5,90,63.2,136
			C7872.9,3749.1,7936.1,3756.8,8018.5,3714.7z M4833.3,2609.5c53.6-49.8,57.5-128.3,7.7-189.6l-36.4-46l-568.8-5.7
			c-496.1-3.8-574.6-1.9-616.7,24.9c-59.4,40.2-82.4,101.5-59.4,162.8c34.5,93.8,42.1,95.8,655,95.8
			C4777.8,2651.7,4789.3,2651.7,4833.3,2609.5z"/>
		<path class="st0" d="M6147.2-2987c-319.9-78.5-582.2-335.2-666.5-653.1c-78.5-304.5,1.9-607.2,224.1-844.6
			c482.7-515.2,1342.6-295,1528.4,392.6c34.5,128.3,26.8,358.1-15.3,494.1C7076.2-3147.9,6601.2-2877.8,6147.2-2987z M6486.2-3596
			c116.8-59.4,172.4-147.5,172.4-272c0-304.5-375.4-413.7-561.2-162.8c-97.7,134.1-38.3,350.5,118.8,432.9
			C6321.5-3542.4,6379-3542.4,6486.2-3596z"/>
	</g>
</g>
</svg>
